<?xml version="1.0" standalone="no"?>
<!DOCTYPE svg PUBLIC "-//W3C//DTD SVG 20010904//EN"
 "http://www.w3.org/TR/2001/REC-SVG-20010904/DTD/svg10.dtd">
<svg version="1.0" xmlns="http://www.w3.org/2000/svg"
 width="768.000000pt" height="768.000000pt" viewBox="0 0 768.000000 768.000000"
 preserveAspectRatio="xMidYMid meet">
<metadata>
Created by potrace 1.14, written by Peter Selinger 2001-2017
</metadata>
<g transform="translate(0.000000,768.000000) scale(0.100000,-0.100000)"
fill="#000000" stroke="none">
<path d="M4892 6173 l-224 -224 809 -810 c444 -446 846 -848 893 -895 l85 -85
-75 1 c-41 0 -82 -1 -90 -1 -8 0 -62 0 -120 0 -58 0 -113 1 -122 0 -10 0 -38
0 -63 0 -25 0 -51 0 -57 0 -7 0 -67 0 -133 1 -66 1 -124 1 -130 0 -5 -2 -14
-2 -19 -1 -13 3 -129 3 -141 1 -5 -1 -13 -2 -17 -1 -29 3 -270 3 -273 -1 -3
-3 -22 -2 -43 2 -20 3 -48 3 -62 0 -14 -4 -34 -4 -44 0 -11 3 -39 3 -62 0 -24
-4 -46 -5 -48 -2 -5 4 -229 6 -251 1 -5 -1 -14 -1 -19 0 -21 4 -136 4 -140 0
-2 -2 -43 -2 -90 1 -47 3 -86 1 -86 -3 0 -5 -4 -6 -9 -3 -11 7 -220 11 -226 4
-3 -3 -22 -2 -43 1 -20 4 -48 4 -62 1 -13 -3 -42 -3 -64 0 -22 3 -77 3 -123 0
-46 -3 -91 -2 -100 1 -9 3 -36 2 -60 -1 -24 -4 -46 -4 -48 0 -3 4 -23 4 -45 0
-21 -4 -42 -5 -44 -2 -6 5 -206 6 -211 0 -3 -2 -24 -2 -47 1 -24 3 -71 4 -105
1 -35 -3 -70 -3 -79 0 -10 4 -37 3 -61 0 -24 -4 -46 -4 -48 0 -3 4 -23 4 -45
0 -21 -4 -42 -5 -44 -2 -4 4 -204 5 -216 1 -3 -1 -9 -1 -14 0 -13 3 -199 3
-211 1 -5 -1 -14 -2 -19 -1 -13 3 -129 3 -141 1 -5 -1 -13 -2 -17 -1 -29 3
-270 3 -273 -1 -3 -3 -22 -2 -43 2 -20 3 -48 3 -62 0 -14 -4 -34 -4 -44 0 -11
3 -39 3 -62 0 -24 -4 -46 -5 -48 -2 -5 4 -229 6 -251 1 -5 -1 -14 -1 -19 0
-13 3 -129 3 -141 1 -5 -1 -14 -2 -19 -1 -13 3 -129 3 -141 1 -5 -1 -14 -2
-19 -1 -13 3 -129 3 -141 1 -5 -1 -13 -2 -17 -1 -29 3 -270 3 -273 -1 -3 -3
-22 -2 -43 2 -20 3 -48 3 -62 0 -14 -4 -34 -4 -44 0 -11 3 -39 3 -62 0 -24 -4
-46 -5 -48 -2 -5 4 -229 6 -251 1 -5 -1 -14 -1 -19 0 -13 3 -129 3 -141 1 -5
-1 -22 -1 -37 0 l-28 2 0 -320 0 -320 55 -4 c30 -1 55 1 55 5 0 5 4 6 9 3 8
-5 204 -10 226 -6 6 1 14 2 19 1 7 -2 57 -2 106 0 8 0 69 0 135 -1 66 -1 125
-1 130 0 6 2 14 2 19 1 13 -3 129 -3 141 -1 6 1 13 2 17 1 29 -3 270 -3 273 1
3 3 22 2 43 -2 20 -3 48 -3 62 0 14 4 34 4 44 0 11 -3 39 -3 62 0 24 4 46 5
48 2 5 -4 229 -6 251 -1 6 1 14 1 19 0 21 -4 136 -4 140 0 2 2 43 2 90 -1 47
-3 86 -1 86 3 0 5 4 6 9 3 11 -7 220 -11 226 -4 3 3 22 2 43 -1 20 -4 48 -4
62 -1 13 3 42 3 64 0 22 -3 77 -3 123 0 46 3 91 2 100 -1 9 -3 36 -2 60 1 24
4 46 4 48 0 3 -4 23 -4 45 0 21 4 42 5 44 2 6 -5 206 -6 211 0 3 2 24 2 47 -1
24 -3 71 -4 105 -1 35 3 70 3 79 0 10 -4 37 -3 61 0 24 4 46 4 48 0 3 -4 23
-4 45 0 21 4 42 5 44 2 4 -4 203 -6 216 -2 3 1 19 1 37 0 103 -5 203 -4 203 3
0 5 4 6 9 3 8 -5 204 -10 226 -6 6 1 14 2 19 1 7 -2 57 -2 106 0 8 0 69 0 135
-1 66 -1 125 -1 130 0 6 2 14 2 19 1 13 -3 129 -3 141 -1 6 1 13 2 17 1 29 -3
270 -3 273 1 3 3 22 2 43 -2 20 -3 48 -3 62 0 14 4 34 4 44 0 11 -3 39 -3 62
0 24 4 46 5 48 2 5 -4 229 -6 251 -1 6 1 14 1 19 0 21 -4 136 -4 140 0 2 2 43
2 90 -1 47 -3 86 -1 86 3 0 5 4 6 9 3 8 -5 204 -10 226 -6 6 1 14 2 19 1 4 -1
27 -2 50 -1 22 0 50 0 61 1 160 0 205 -2 205 -8 0 -4 -398 -406 -885 -891
-487 -486 -885 -886 -885 -888 0 -2 101 -106 225 -229 l225 -225 1280 1280
1280 1280 -1280 1280 c-704 704 -1281 1280 -1283 1279 -1 0 -103 -102 -225
-226z"/>
</g>
</svg>
